<svg viewBox="0 0 32 32" xmlns="http://www.w3.org/2000/svg" id='bill'>
    <path d="M25.2 2H8C6.9 2 6 2.9 6 4.1V30L9.80005 27L13.1 30L16.4 27L19.7 30L23 26.9L27 30V4.1C27.2 2.9 26.3 2 25.2 2ZM25 25.8L24.4 25.3L23.1 24.2L21.8 25.4L19.8 27.3L17.8 25.5L16.5 24.3L15.2 25.5L13.2 27.3L11.2 25.5L9.90002 24.4L8.59998 25.4L8 25.9V4.1V4H25V4.1V25.8Z" />

    <path d="M17.3004 16.1999C17.3004 15.8999 17.2003 15.5999 17.1003 14.9999H20.0004V13.9999H16.3004C14.9004 12.9999 14.6003 12.4999 14.6003 11.8999C14.6003 10.8999 15.4003 10.2999 16.7003 10.2999C17.9003 10.2999 18.9004 10.8999 19.0004 12.0999H21.1003C21.0003 10.2999 19.5004 8.8999 16.8004 8.8999C14.1004 8.8999 12.8004 10.2999 12.8004 11.7999C12.8004 12.6999 13.2003 13.3999 14.2003 14.0999H12.0004V15.0999H15.3004C15.5004 15.3999 15.6003 15.6999 15.6003 16.0999C15.6003 17.1999 14.6004 18.0999 12.5004 18.0999H11.9004V20.0999H20.9004V18.0999H16.0004C16.8004 17.6999 17.3004 16.9999 17.3004 16.1999Z" />

    <path d="M17.3004 16.1999C17.3004 15.8999 17.2003 15.5999 17.1003 14.9999H20.0004V13.9999H16.3004C14.9004 12.9999 14.6003 12.4999 14.6003 11.8999C14.6003 10.8999 15.4003 10.2999 16.7003 10.2999C17.9003 10.2999 18.9004 10.8999 19.0004 12.0999H21.1003C21.0003 10.2999 19.5004 8.8999 16.8004 8.8999C14.1004 8.8999 12.8004 10.2999 12.8004 11.7999C12.8004 12.6999 13.2003 13.3999 14.2003 14.0999H12.0004V15.0999H15.3004C15.5004 15.3999 15.6003 15.6999 15.6003 16.0999C15.6003 17.1999 14.6004 18.0999 12.5004 18.0999H11.9004V20.0999H20.9004V18.0999H16.0004C16.8004 17.6999 17.3004 16.9999 17.3004 16.1999Z" />
</svg>