<svg
  viewBox="0 0 24 24"
  xmlns="http://www.w3.org/2000/svg"
>
  <path d="M8.42308 5.79508L8.71539 5.44431L8.39252 5.12144L5.99252 2.72145C5.76986 2.49879 5.51433 2.49967 5.42294 2.49998C5.41975 2.49999 5.41675 2.5 5.41397 2.5C5.02763 2.5 4.76782 2.81995 4.60404 3.19426C2.88453 5.39315 2.19057 7.56658 2.66463 9.89657C3.13489 12.2078 4.73838 14.5815 7.38542 17.2286C10.4071 20.2503 12.9309 21.725 15.389 21.725C17.1978 21.725 18.9532 20.9018 20.8667 19.2987C21.0329 19.1823 21.1516 19.042 21.2204 18.8813C21.2892 18.7208 21.289 18.5802 21.289 18.5292L21.289 18.525L21.289 18.5201C21.289 18.482 21.2891 18.3907 21.2728 18.2928C21.2576 18.2019 21.2159 18.0198 21.0675 17.8714L20.714 18.225L21.0675 17.8714L18.9675 15.7714L18.6446 15.4486L18.2939 15.7409L16.4939 17.2409L16.4764 17.2554L16.4604 17.2715L16.4428 17.2891L16.3654 17.3278L16.353 17.334L16.3409 17.3409C15.8956 17.5953 15.3819 17.725 14.864 17.725C14.0934 17.725 13.3215 17.4005 12.8175 16.8964L7.26752 11.3465L7.26143 11.3404L7.25513 11.3345C6.323 10.4645 6.17007 8.99859 6.82605 7.81783L6.83133 7.80832L6.83619 7.7986L6.91119 7.64859L6.96023 7.55049L8.42308 5.79508ZM4.23111 2.5602L4.23871 2.55059L4.24584 2.54062C4.50475 2.17814 4.93297 2 5.41397 2C5.78013 2 6.1162 2.15216 6.43081 2.39893L9.46087 5.429L7.35651 7.92793L7.32411 7.96641L7.30002 8.01057C6.76452 8.99233 6.82499 10.1431 7.61041 10.9286L13.1426 16.4608C13.5763 16.9827 14.2669 17.15 14.789 17.15C15.2164 17.15 15.6837 16.9492 15.9876 16.7972L16.0406 16.7707L16.086 16.7324L18.585 14.6281L21.3354 17.3785C21.8593 17.9024 21.838 18.9113 21.1451 19.4899C19.0974 21.1715 17.1819 22 15.314 22C12.8179 22 10.1657 20.5443 6.96869 17.3476C4.22175 14.5633 2.61426 12.0431 2.14523 9.65369C1.68238 7.29579 2.31343 4.98444 4.23111 2.5602Z" />
</svg>
