<svg
  viewBox="-1 -1 54 54"
  xmlns="http://www.w3.org/2000/svg"
>
  <path d="M29.7409 25.88C31.1569 25.184 32.1409 23.888 32.1409 22.208C32.1409 19.28 29.7649 17.528 26.1409 17.528C22.1329 17.528 20.0209 19.52 19.9489 22.88H23.0689C23.1649 20.912 24.3409 20.168 26.1169 20.168C27.9169 20.168 28.9969 21.032 28.9969 22.472C28.9969 24.056 27.9409 24.848 25.9969 24.848H24.7489V27.224H26.0209C28.0609 27.224 29.2849 28.208 29.2849 29.984C29.2849 31.616 28.1089 32.648 26.1409 32.648C23.9329 32.648 22.7329 31.616 22.6849 29.336H19.5409C19.5409 33.008 21.7489 35.384 26.2369 35.384C30.1969 35.384 32.6449 33.224 32.6449 30.104C32.6449 28.016 31.4209 26.576 29.7409 25.88Z" />
  <path d="M26 48C13.8497 48 4 38.1503 4 26H0C0 40.3594 11.6406 52 26 52V48ZM48 26C48 38.1503 38.1503 48 26 48V52C40.3594 52 52 40.3594 52 26H48ZM26 4C38.1503 4 48 13.8497 48 26H52C52 11.6406 40.3594 0 26 0V4ZM26 0C11.6406 0 0 11.6406 0 26H4C4 13.8497 13.8497 4 26 4V0Z" />
</svg>
