<svg
  viewBox="-1 -1 54 54"
  xmlns="http://www.w3.org/2000/svg"
  id='two'
>
  <path d="M23.4819 32.264C23.6019 30.8 24.3939 30.104 26.0019 29.24L27.5859 28.4C30.5859 26.912 32.0979 25.28 32.0979 22.568C32.0979 19.664 29.8419 17.528 26.1219 17.528C21.9699 17.528 19.9299 19.808 19.9539 23.384H23.0739C23.0739 21.2 24.1779 20.264 26.0259 20.264C27.8259 20.264 28.8339 21.272 28.8339 22.808C28.8339 24.296 28.0419 25.184 26.0979 26.12L24.4179 26.984C20.5299 28.736 20.0499 31.472 19.9299 33.728L19.8579 35H32.2899V32.264H23.4819Z" />
  <path d="M26 48C13.8497 48 4 38.1503 4 26H0C0 40.3594 11.6406 52 26 52V48ZM48 26C48 38.1503 38.1503 48 26 48V52C40.3594 52 52 40.3594 52 26H48ZM26 4C38.1503 4 48 13.8497 48 26H52C52 11.6406 40.3594 0 26 0V4ZM26 0C11.6406 0 0 11.6406 0 26H4C4 13.8497 13.8497 4 26 4V0Z" />
</svg>
