<svg width="36" height="24" viewBox="0 0 36 24" fill="none" xmlns="http://www.w3.org/2000/svg">
<path d="M29.6133 21.8931H6.38669C3.95246 21.8931 2 20.1049 2 17.8754V6.12435C2 3.89489 3.95246 2.10669 6.38669 2.10669H29.6133C32.0222 2.10669 34 3.89489 34 6.12435V17.8986C33.9746 20.1049 32.0222 21.8931 29.6133 21.8931Z" stroke="#F4793B" stroke-width="2.5" stroke-miterlimit="10"/>
<path d="M9.80947 8.79435C9.80947 8.88724 9.88554 8.98013 10.0123 8.98013H11.6098V9.86262H10.0123C9.9109 9.86262 9.80947 9.93229 9.80947 10.0484C9.80947 10.1413 9.88554 10.2342 10.0123 10.2342H11.6098V10.3039C11.6098 10.8148 11.1534 11.256 10.5702 11.256H6.41169C5.85384 11.256 5.37207 10.838 5.37207 10.3039V10.1877H7.09632C7.19774 10.1877 7.29917 10.1181 7.29917 10.002C7.29917 9.90907 7.2231 9.81617 7.09632 9.81617H5.37207V8.93369H7.09632C7.19774 8.93369 7.29917 8.86402 7.29917 8.7479C7.29917 8.65501 7.2231 8.56211 7.09632 8.56211H5.37207V8.49244C5.37207 7.98153 5.82849 7.54028 6.41169 7.54028H10.5702C11.128 7.54028 11.6098 7.9583 11.6098 8.49244V8.60856H10.0123C9.88554 8.63178 9.80947 8.70145 9.80947 8.79435Z" fill="#F4793B"/>
<path d="M23.8244 15.6478C24.4543 15.6478 24.7692 15.9155 24.7692 16.4508C24.7692 17.0072 24.4543 17.2854 23.8244 17.2854H17.1166C16.4868 17.2854 16.1719 17.0072 16.1719 16.4508C16.1719 15.9155 16.4868 15.6478 17.1166 15.6478H17.652V12.3569H16.8175C16.6285 12.3569 16.471 12.2991 16.3451 12.1837C16.2296 12.0577 16.1719 11.9055 16.1719 11.727C16.1719 11.5486 16.2296 11.4016 16.3451 11.2861C16.471 11.1602 16.6285 11.0972 16.8175 11.0972H17.652V9.14468C17.652 8.19992 17.9564 7.44937 18.5653 6.89301C19.1741 6.32615 19.9981 6.04272 21.0374 6.04272C21.6462 6.04272 22.2498 6.15295 22.8482 6.37339C23.4465 6.58334 23.9661 6.87201 24.407 7.23942C24.5435 7.34439 24.638 7.45986 24.6905 7.58583C24.7429 7.7013 24.7692 7.83777 24.7692 7.99523C24.7692 8.22617 24.7062 8.42037 24.5802 8.57783C24.4543 8.73529 24.2968 8.81402 24.1078 8.81402C24.0029 8.81402 23.8979 8.79302 23.7929 8.75103C23.688 8.70904 23.583 8.65656 23.478 8.59357C23.0476 8.28915 22.6435 8.05821 22.2656 7.90075C21.8877 7.74329 21.5045 7.66456 21.1161 7.66456C20.6647 7.66456 20.3078 7.80103 20.0454 8.07396C19.783 8.34689 19.6517 8.75103 19.6517 9.2864V11.0972H21.8404C22.0294 11.0972 22.1868 11.1602 22.3128 11.2861C22.4388 11.4016 22.5018 11.5486 22.5018 11.727C22.5018 11.9055 22.4388 12.0577 22.3128 12.1837C22.1868 12.2991 22.0294 12.3569 21.8404 12.3569H19.6517V15.6478H23.8244Z" fill="#F4793B"/>
</svg>
