<svg width="65" height="56" viewBox="0 0 65 56" fill="none" xmlns="http://www.w3.org/2000/svg">
<path d="M16.2063 30.7998H23.5853C24.4137 30.7998 25.0853 31.4714 25.0853 32.2998V32.8514C25.0853 33.6798 24.4137 34.3514 23.5853 34.3514H16.2063C15.3779 34.3514 14.7063 33.6798 14.7063 32.8514V32.2998C14.7063 31.4714 15.3779 30.7998 16.2063 30.7998Z" fill="#924A8B" stroke="white"/>
<path d="M41.24 30.7998H48.619C49.4474 30.7998 50.119 31.4714 50.119 32.2998V32.8514C50.119 33.6798 49.4474 34.3514 48.619 34.3514H41.24C40.4116 34.3514 39.74 33.6798 39.74 32.8514V32.2998C39.74 31.4714 40.4116 30.7998 41.24 30.7998Z" fill="#924A8B" stroke="white"/>
<path d="M60.6639 21.6967H62.2738C63.1022 21.6967 63.7738 22.3682 63.7738 23.1967V23.7482C63.7738 24.5767 63.1022 25.2482 62.2738 25.2482H61.7222C60.3415 25.2482 59.2222 26.3675 59.2222 27.7482V42.5891V46.2304V53.3336C59.2222 54.162 58.5506 54.8336 57.7222 54.8336H52.619C51.7906 54.8336 51.119 54.162 51.119 53.3336V48.2304C51.119 46.8497 49.9997 45.7304 48.619 45.7304H16.2063C14.8256 45.7304 13.7063 46.8497 13.7063 48.2304V53.3336C13.7063 54.162 13.0347 54.8336 12.2063 54.8336H7.1031C6.27467 54.8336 5.6031 54.162 5.6031 53.3336V46.2304V42.5891V27.7482C5.6031 26.3675 4.48381 25.2482 3.1031 25.2482H2.55151C1.72309 25.2482 1.05151 24.5767 1.05151 23.7482V23.1967C1.05151 22.3682 1.72309 21.6967 2.55151 21.6967H4.38894C5.43776 21.6967 6.37507 21.042 6.73613 20.0573L13.2845 2.19813C13.5011 1.6073 14.0635 1.21451 14.6928 1.21451H50.36C50.9893 1.21451 51.5517 1.6073 51.7683 2.19813L58.3167 20.0573C58.6777 21.042 59.615 21.6967 60.6639 21.6967ZM46.9572 4.7661H17.6569C16.6047 4.7661 15.6651 5.4249 15.3066 6.41409L9.30435 22.9718C9.20534 23.2449 9.15469 23.5332 9.15469 23.8238V39.6788C9.15469 41.0595 10.274 42.1788 11.6547 42.1788H53.1706C54.5513 42.1788 55.6706 41.0595 55.6706 39.6788V23.8351C55.6706 23.5353 55.6167 23.238 55.5114 22.9573L49.298 6.38829C48.9321 5.41253 47.9993 4.7661 46.9572 4.7661Z" fill="#924A8B" stroke="#924A8B"/>
</svg>
