<svg width="67" height="45" viewBox="0 0 67 45" fill="none" xmlns="http://www.w3.org/2000/svg">
<path d="M56.0582 43.3334H10.5878C5.82229 43.3334 2 39.5978 2 34.9406V10.3928C2 5.73553 5.82229 2 10.5878 2H56.0582C60.774 2 64.6459 5.73553 64.6459 10.3928V34.9891C64.5963 39.5978 60.774 43.3334 56.0582 43.3334Z" stroke="#924A8B" stroke-width="3" stroke-miterlimit="10"/>
<path d="M8.01147 30.6211H60.1336" stroke="#924A8B" stroke-width="2" stroke-miterlimit="10" stroke-linecap="round"/>
<path d="M8.01147 36.0073H25.5344" stroke="#924A8B" stroke-width="2" stroke-miterlimit="10" stroke-linecap="round"/>
<path d="M28.6067 36.0073H38.3858" stroke="#924A8B" stroke-width="2" stroke-miterlimit="10" stroke-linecap="round"/>
<path d="M17.2915 15.9701C17.2915 16.1641 17.4404 16.3582 17.6886 16.3582H20.816V18.2017H17.6886C17.4901 18.2017 17.2915 18.3472 17.2915 18.5898C17.2915 18.7838 17.4404 18.9779 17.6886 18.9779H20.816V19.1234C20.816 20.1907 19.9225 21.1125 18.7807 21.1125H10.6397C9.54766 21.1125 8.60449 20.2392 8.60449 19.1234V18.8809H11.98C12.1786 18.8809 12.3771 18.7353 12.3771 18.4928C12.3771 18.2987 12.2282 18.1047 11.98 18.1047H8.60449V16.2611H11.98C12.1786 16.2611 12.3771 16.1156 12.3771 15.873C12.3771 15.679 12.2282 15.4849 11.98 15.4849H8.60449V15.3394C8.60449 14.2721 9.49801 13.3503 10.6397 13.3503H18.7807C19.8728 13.3503 20.816 14.2236 20.816 15.3394V15.582H17.6886C17.4404 15.6305 17.2915 15.776 17.2915 15.9701Z" fill="#924A8B"/>
</svg>
