<svg width="79" height="45" viewBox="0 0 79 45" fill="none" xmlns="http://www.w3.org/2000/svg">
<rect x="1.5" y="2.38867" width="75.1111" height="28.5601" rx="3.5" stroke="#A64470" stroke-width="3"/>
<line x1="15.2041" y1="14.0904" x2="60.5442" y2="14.0904" stroke="#A64470" stroke-width="2" stroke-linecap="round"/>
<path d="M22.0188 15.012H54.5238V39.2831C54.5238 41.2161 52.9568 42.7831 51.0238 42.7831H25.5188C23.5858 42.7831 22.0188 41.2161 22.0188 39.2831V15.012Z" fill="white" stroke="#A64470" stroke-width="3"/>
<mask id="path-4-inside-1" fill="white">
<path fill-rule="evenodd" clip-rule="evenodd" d="M26.8308 15.0912V17.7225C26.8308 18.4602 27.393 19.0376 28.0439 19.0376H28.1327L28.1327 17.0169C28.1327 16.8566 28.251 16.7604 28.3694 16.7604C28.5173 16.7604 28.6061 16.8886 28.6061 17.0169V19.0376H29.7304V17.0169C29.7304 16.8566 29.8487 16.7604 29.9671 16.7604C30.0854 16.7604 30.1742 16.8566 30.2038 17.0169L30.2038 19.0376H30.3517C31.0322 19.0376 31.5648 18.4282 31.5648 17.7225L31.5648 15.0912H26.8308Z"/>
</mask>
<path fill-rule="evenodd" clip-rule="evenodd" d="M26.8308 15.0912V17.7225C26.8308 18.4602 27.393 19.0376 28.0439 19.0376H28.1327L28.1327 17.0169C28.1327 16.8566 28.251 16.7604 28.3694 16.7604C28.5173 16.7604 28.6061 16.8886 28.6061 17.0169V19.0376H29.7304V17.0169C29.7304 16.8566 29.8487 16.7604 29.9671 16.7604C30.0854 16.7604 30.1742 16.8566 30.2038 17.0169L30.2038 19.0376H30.3517C31.0322 19.0376 31.5648 18.4282 31.5648 17.7225L31.5648 15.0912H26.8308Z" fill="#924A8B"/>
<path d="M26.8308 15.0912V14.0912H25.8308V15.0912H26.8308ZM28.1327 19.0376V20.0376H29.1327V19.0376H28.1327ZM28.1327 17.0169H29.1327H28.1327ZM28.6061 17.0169L27.6061 17.0169V17.0169H28.6061ZM28.6061 19.0376H27.6061V20.0376H28.6061V19.0376ZM29.7304 19.0376V20.0376H30.7304V19.0376H29.7304ZM30.2038 17.0169L31.2038 17.0169V16.9255L31.1872 16.8355L30.2038 17.0169ZM30.2038 19.0376H29.2038V20.0376H30.2038V19.0376ZM31.5648 17.7225L30.5648 17.7225V17.7225H31.5648ZM31.5648 15.0912L32.5648 15.0912V14.0912H31.5648V15.0912ZM27.8308 17.7225V15.0912H25.8308V17.7225H27.8308ZM28.0439 18.0376C28.021 18.0376 27.9742 18.0275 27.9226 17.9725C27.8723 17.9189 27.8308 17.8339 27.8308 17.7225H25.8308C25.8308 18.9514 26.7815 20.0376 28.0439 20.0376V18.0376ZM28.1327 18.0376H28.0439V20.0376H28.1327V18.0376ZM27.1327 17.0169L27.1327 19.0376H29.1327L29.1327 17.0169H27.1327ZM28.3694 15.7604C27.7047 15.7604 27.1327 16.2983 27.1327 17.0169H29.1327C29.1327 17.4148 28.7973 17.7604 28.3694 17.7604V15.7604ZM29.6061 17.0169C29.6061 16.5001 29.2202 15.7604 28.3694 15.7604V17.7604C28.128 17.7604 27.9149 17.6462 27.7796 17.4862C27.6576 17.342 27.6061 17.1732 27.6061 17.0169L29.6061 17.0169ZM29.6061 19.0376V17.0169H27.6061V19.0376H29.6061ZM29.7304 18.0376H28.6061V20.0376H29.7304V18.0376ZM28.7304 17.0169V19.0376H30.7304V17.0169H28.7304ZM29.9671 15.7604C29.3024 15.7604 28.7304 16.2983 28.7304 17.0169H30.7304C30.7304 17.4148 30.395 17.7604 29.9671 17.7604V15.7604ZM31.1872 16.8355C31.1146 16.4422 30.7772 15.7604 29.9671 15.7604V17.7604C29.7288 17.7604 29.5196 17.6538 29.3837 17.5066C29.2633 17.376 29.2298 17.2491 29.2204 17.1984L31.1872 16.8355ZM31.2038 19.0376L31.2038 17.0169L29.2038 17.0169L29.2038 19.0376H31.2038ZM30.3517 18.0376H30.2038V20.0376H30.3517V18.0376ZM30.5648 17.7225C30.5648 17.8253 30.5252 17.915 30.4728 17.9728C30.4234 18.0273 30.3804 18.0376 30.3517 18.0376V20.0376C31.674 20.0376 32.5648 18.8865 32.5648 17.7225H30.5648ZM30.5648 15.0912L30.5648 17.7225L32.5648 17.7225L32.5648 15.0912L30.5648 15.0912ZM31.5648 14.0912H26.8308V16.0912H31.5648V14.0912Z" fill="#A64470" mask="url(#path-4-inside-1)"/>
</svg>
