<svg width="24" height="24" viewBox="0 0 24 24" fill="none" xmlns="http://www.w3.org/2000/svg">
<path d="M5.65 8.17263H7.45C7.59232 8.70437 7.90615 9.17428 8.34281 9.50944C8.77947 9.8446 9.31454 10.0263 9.865 10.0263C10.4155 10.0263 10.9505 9.8446 11.3872 9.50944C11.8238 9.17428 12.1377 8.70437 12.28 8.17263H18.72C18.8054 8.17263 18.8899 8.15582 18.9687 8.12315C19.0476 8.09049 19.1193 8.04261 19.1796 7.98225C19.24 7.92189 19.2879 7.85024 19.3205 7.77138C19.3532 7.69251 19.37 7.60799 19.37 7.52263C19.37 7.43727 19.3532 7.35275 19.3205 7.27389C19.2879 7.19503 19.24 7.12337 19.1796 7.06301C19.1193 7.00265 19.0476 6.95478 18.9687 6.92211C18.8899 6.88944 18.8054 6.87263 18.72 6.87263H12.28C12.141 6.33653 11.828 5.86176 11.39 5.52283C10.952 5.1839 10.4138 5.00001 9.86 5.00001C9.30618 5.00001 8.76804 5.1839 8.33004 5.52283C7.89204 5.86176 7.57898 6.33653 7.44 6.87263H5.65C5.56464 6.87263 5.48012 6.88944 5.40126 6.92211C5.32239 6.95478 5.25074 7.00265 5.19038 7.06301C5.13002 7.12337 5.08214 7.19503 5.04948 7.27389C5.01681 7.35275 5 7.43727 5 7.52263C5 7.60799 5.01681 7.69251 5.04948 7.77138C5.08214 7.85024 5.13002 7.92189 5.19038 7.98225C5.25074 8.04261 5.32239 8.09049 5.40126 8.12315C5.48012 8.15582 5.56464 8.17263 5.65 8.17263ZM9.86 6.29263C10.0965 6.29461 10.3271 6.36642 10.5229 6.49903C10.7187 6.63164 10.8709 6.81915 10.9605 7.03801C11.0501 7.25687 11.073 7.49732 11.0264 7.72916C10.9798 7.961 10.8657 8.1739 10.6985 8.34112C10.5313 8.50834 10.3184 8.62242 10.0865 8.66904C9.85469 8.71566 9.61424 8.69274 9.39538 8.60316C9.17652 8.51357 8.98901 8.36132 8.8564 8.16552C8.72378 7.96972 8.65198 7.73911 8.65 7.50263C8.64867 7.34336 8.67905 7.18542 8.73939 7.03801C8.79973 6.89061 8.8888 6.75669 9.00143 6.64406C9.11406 6.53144 9.24797 6.44236 9.39538 6.38202C9.54279 6.32169 9.70073 6.2913 9.86 6.29263ZM18.72 16.2226H12.28C12.141 15.6865 11.828 15.2118 11.39 14.8728C10.952 14.5339 10.4138 14.35 9.86 14.35C9.30618 14.35 8.76804 14.5339 8.33004 14.8728C7.89204 15.2118 7.57898 15.6865 7.44 16.2226H5.65C5.47761 16.2226 5.31228 16.2911 5.19038 16.413C5.06848 16.5349 5 16.7002 5 16.8726C5 17.045 5.06848 17.2104 5.19038 17.3323C5.31228 17.4542 5.47761 17.5226 5.65 17.5226H7.45C7.59232 18.0544 7.90615 18.5243 8.34281 18.8594C8.77947 19.1946 9.31454 19.3763 9.865 19.3763C10.4155 19.3763 10.9505 19.1946 11.3872 18.8594C11.8238 18.5243 12.1377 18.0544 12.28 17.5226H18.72C18.8924 17.5226 19.0577 17.4542 19.1796 17.3323C19.3015 17.2104 19.37 17.045 19.37 16.8726C19.37 16.7002 19.3015 16.5349 19.1796 16.413C19.0577 16.2911 18.8924 16.2226 18.72 16.2226ZM9.86 18.0726C9.54174 18.0726 9.23652 17.9462 9.01147 17.7212C8.78643 17.4961 8.66 17.1909 8.66 16.8726C8.66 16.5544 8.78643 16.2491 9.01147 16.0241C9.23652 15.7991 9.54174 15.6726 9.86 15.6726C10.1783 15.6726 10.4835 15.7991 10.7085 16.0241C10.9336 16.2491 11.06 16.5544 11.06 16.8726C11.06 17.1909 10.9336 17.4961 10.7085 17.7212C10.4835 17.9462 10.1783 18.0726 9.86 18.0726Z" fill="#DB4D75"/>
<path d="M18.72 11.5726H16.93C16.7877 11.0409 16.4738 10.571 16.0372 10.2358C15.6005 9.90066 15.0655 9.71899 14.515 9.71899C13.9645 9.71899 13.4295 9.90066 12.9928 10.2358C12.5562 10.571 12.2423 11.0409 12.1 11.5726H5.65C5.47761 11.5726 5.31228 11.6411 5.19038 11.763C5.06848 11.8849 5 12.0502 5 12.2226C5 12.395 5.06848 12.5604 5.19038 12.6823C5.31228 12.8041 5.47761 12.8726 5.65 12.8726H12.1C12.2455 13.4001 12.56 13.8653 12.9954 14.1968C13.4307 14.5283 13.9628 14.7079 14.51 14.7079C15.0572 14.7079 15.5893 14.5283 16.0246 14.1968C16.46 13.8653 16.7745 13.4001 16.92 12.8726H18.72C18.8924 12.8726 19.0577 12.8041 19.1796 12.6823C19.3015 12.5604 19.37 12.395 19.37 12.2226C19.37 12.0502 19.3015 11.8849 19.1796 11.763C19.0577 11.6411 18.8924 11.5726 18.72 11.5726ZM14.51 13.4026C14.1917 13.4026 13.8865 13.2762 13.6615 13.0512C13.4364 12.8261 13.31 12.5209 13.31 12.2026C13.31 11.8844 13.4364 11.5791 13.6615 11.3541C13.8865 11.1291 14.1917 11.0026 14.51 11.0026C14.8283 11.0026 15.1335 11.1291 15.3585 11.3541C15.5836 11.5791 15.71 11.8844 15.71 12.2026C15.71 12.5209 15.5836 12.8261 15.3585 13.0512C15.1335 13.2762 14.8283 13.4026 14.51 13.4026Z" fill="#DB4D75"/>
</svg>
