<svg width="18" height="14" viewBox="0 0 18 14" fill="none" xmlns="http://www.w3.org/2000/svg">
<path d="M8.54558 4.49999L4.84558 0.859995L4.73558 0.769995C4.62686 0.685663 4.49317 0.639893 4.35558 0.639893C4.21798 0.639893 4.0843 0.685663 3.97558 0.769995L3.86558 0.859995L0.195577 4.49999C0.072251 4.62067 0.00191384 4.78539 3.84799e-05 4.95792C-0.00183688 5.13046 0.0649032 5.29667 0.185577 5.41999C0.30625 5.54332 0.470972 5.61366 0.643506 5.61553C0.816039 5.61741 0.982251 5.55067 1.10558 5.42999L3.70558 2.84999V12.53C3.70558 12.6154 3.72239 12.6999 3.75505 12.7787C3.78772 12.8576 3.8356 12.9293 3.89596 12.9896C3.95632 13.05 4.02797 13.0979 4.10683 13.1305C4.18569 13.1632 4.27022 13.18 4.35558 13.18C4.44094 13.18 4.52546 13.1632 4.60432 13.1305C4.68318 13.0979 4.75484 13.05 4.8152 12.9896C4.87555 12.9293 4.92343 12.8576 4.9561 12.7787C4.98876 12.6999 5.00558 12.6154 5.00558 12.53V2.84999L7.62558 5.42999C7.68595 5.49047 7.75765 5.53844 7.83658 5.57118C7.91552 5.60391 8.00013 5.62076 8.08558 5.62076C8.17103 5.62076 8.25564 5.60391 8.33457 5.57118C8.4135 5.53844 8.4852 5.49047 8.54558 5.42999C8.66832 5.30636 8.7372 5.13921 8.7372 4.96499C8.7372 4.79078 8.66832 4.62363 8.54558 4.49999ZM17.1156 8.40999C17.0552 8.34952 16.9835 8.30155 16.9046 8.26881C16.8256 8.23608 16.741 8.21923 16.6556 8.21923C16.5701 8.21923 16.4855 8.23608 16.4066 8.26881C16.3277 8.30155 16.2559 8.34952 16.1956 8.40999L13.5656 11V1.29999C13.5656 1.1276 13.4971 0.962274 13.3752 0.840375C13.2533 0.718477 13.088 0.649995 12.9156 0.649995C12.7432 0.649995 12.5779 0.718477 12.456 0.840375C12.3341 0.962274 12.2656 1.1276 12.2656 1.29999V11L9.64558 8.39999C9.52225 8.27932 9.35604 8.21258 9.18351 8.21446C9.01097 8.21633 8.84625 8.28667 8.72558 8.40999C8.6049 8.53332 8.53816 8.69953 8.54004 8.87207C8.54191 9.0446 8.61225 9.20932 8.73558 9.32999L12.4356 13L12.5056 13.06C12.6143 13.1443 12.748 13.19 12.8856 13.19C13.0234 13.1916 13.1576 13.1457 13.2656 13.06L13.3456 13L17.0456 9.35999C17.1141 9.30328 17.1705 9.23329 17.2114 9.15423C17.2522 9.07516 17.2766 8.98866 17.2831 8.89992C17.2897 8.81118 17.2782 8.72203 17.2494 8.63784C17.2206 8.55365 17.1751 8.47614 17.1156 8.40999Z" fill="#DB4D75"/>
</svg>
