<svg width="66" height="59" viewBox="0 0 66 59" fill="none" xmlns="http://www.w3.org/2000/svg">
<mask id="path-1-inside-1" fill="white">
<path fill-rule="evenodd" clip-rule="evenodd" d="M19.2266 4.3509C19.4047 4.69994 19.5591 5.05258 19.6901 5.40574C24.0934 3.4911 29.1355 2.40404 34.4935 2.40404C51.6973 2.40404 65.6437 13.611 65.6437 27.4354C65.6437 36.7014 59.3783 44.7914 50.0662 49.1192V56.0298C50.0662 57.1343 49.1708 58.0298 48.0662 58.0298H40.9411C39.8366 58.0298 38.9411 57.1343 38.9411 56.0298V52.2136C37.4885 52.3805 36.0036 52.4668 34.4935 52.4668C32.2015 52.4668 29.9673 52.2679 27.8162 51.8904V56.0298C27.8162 57.1343 26.9208 58.0298 25.8162 58.0298H18.6912C17.5866 58.0298 16.6912 57.1343 16.6912 56.0298V47.9789C12.128 45.4207 8.45703 41.9059 6.12859 37.7962C6.01776 37.8152 5.90381 37.8252 5.78755 37.8252H2C0.89543 37.8252 0 36.9297 0 35.8252V19.8C0 18.6955 0.895431 17.8 2 17.8H5.73481C7.15646 15.0633 9.16546 12.5727 11.6352 10.43C11.2375 9.93391 10.8764 9.3782 10.5663 8.77059C8.82571 5.35997 9.35338 1.60573 11.7449 0.385268C14.1363 -0.835196 17.486 0.940278 19.2266 4.3509Z"/>
</mask>
<path d="M19.6901 5.40574L16.8776 6.44944L17.9801 9.42064L20.8864 8.1569L19.6901 5.40574ZM19.2266 4.3509L16.5545 5.7146V5.7146L19.2266 4.3509ZM50.0662 49.1192L48.8018 46.3987L47.0662 47.2053V49.1192H50.0662ZM38.9411 52.2136H41.9411V48.8493L38.5988 49.2332L38.9411 52.2136ZM27.8162 51.8904L28.3348 48.9356L24.8162 48.318V51.8904H27.8162ZM16.6912 47.9789H19.6912V46.2215L18.1582 45.3621L16.6912 47.9789ZM6.12859 37.7962L8.73876 36.3173L7.69915 34.4825L5.62066 34.8395L6.12859 37.7962ZM5.73481 17.8V20.8H7.55704L8.39705 19.183L5.73481 17.8ZM11.6352 10.43L13.6012 12.6961L15.7809 10.8051L13.976 8.55361L11.6352 10.43ZM10.5663 8.77059L7.89414 10.1343L10.5663 8.77059ZM11.7449 0.385268L10.3812 -2.28687V-2.28687L11.7449 0.385268ZM22.5027 4.36203C22.331 3.89925 22.1297 3.43978 21.8987 2.9872L16.5545 5.7146C16.6797 5.9601 16.7872 6.20591 16.8776 6.44944L22.5027 4.36203ZM34.4935 -0.595961C28.7316 -0.595961 23.2816 0.572727 18.4939 2.65457L20.8864 8.1569C24.9051 6.40947 29.5393 5.40404 34.4935 5.40404V-0.595961ZM68.6437 27.4354C68.6437 11.3749 52.7084 -0.595961 34.4935 -0.595961V5.40404C50.6862 5.40404 62.6437 15.8471 62.6437 27.4354H68.6437ZM51.3306 51.8398C61.4072 47.1567 68.6437 38.1614 68.6437 27.4354H62.6437C62.6437 35.2413 57.3495 42.4262 48.8018 46.3987L51.3306 51.8398ZM47.0662 49.1192V56.0298H53.0662V49.1192H47.0662ZM47.0662 56.0298C47.0662 55.4775 47.5139 55.0298 48.0662 55.0298V61.0298C50.8276 61.0298 53.0662 58.7912 53.0662 56.0298H47.0662ZM48.0662 55.0298H40.9411V61.0298H48.0662V55.0298ZM40.9411 55.0298C41.4934 55.0298 41.9411 55.4775 41.9411 56.0298H35.9411C35.9411 58.7912 38.1797 61.0298 40.9411 61.0298V55.0298ZM41.9411 56.0298V52.2136H35.9411V56.0298H41.9411ZM34.4935 55.4668C36.1179 55.4668 37.7172 55.374 39.2835 55.194L38.5988 49.2332C37.2598 49.387 35.8892 49.4668 34.4935 49.4668V55.4668ZM27.2976 54.8452C29.6203 55.2529 32.028 55.4668 34.4935 55.4668V49.4668C32.375 49.4668 30.3144 49.283 28.3348 48.9356L27.2976 54.8452ZM30.8162 56.0298V51.8904H24.8162V56.0298H30.8162ZM25.8162 61.0298C28.5776 61.0298 30.8162 58.7912 30.8162 56.0298H24.8162C24.8162 55.4775 25.2639 55.0298 25.8162 55.0298V61.0298ZM18.6912 61.0298H25.8162V55.0298H18.6912V61.0298ZM13.6912 56.0298C13.6912 58.7912 15.9297 61.0298 18.6912 61.0298V55.0298C19.2434 55.0298 19.6912 55.4775 19.6912 56.0298H13.6912ZM13.6912 47.9789V56.0298H19.6912V47.9789H13.6912ZM3.51842 39.2751C6.15047 43.9206 10.2463 47.8051 15.2241 50.5957L18.1582 45.3621C14.0096 43.0363 10.7636 39.8912 8.73876 36.3173L3.51842 39.2751ZM5.78755 40.8252C6.0748 40.8252 6.35866 40.8006 6.63651 40.7529L5.62066 34.8395C5.67685 34.8299 5.73282 34.8252 5.78755 34.8252V40.8252ZM2 40.8252H5.78755V34.8252H2V40.8252ZM-3 35.8252C-3 38.5866 -0.761423 40.8252 2 40.8252V34.8252C2.55228 34.8252 3 35.2729 3 35.8252H-3ZM-3 19.8V35.8252H3V19.8H-3ZM2 14.8C-0.761419 14.8 -3 17.0386 -3 19.8H3C3 20.3523 2.55228 20.8 2 20.8V14.8ZM5.73481 14.8H2V20.8H5.73481V14.8ZM9.66929 8.16397C6.94019 10.5316 4.68398 13.3151 3.07258 16.4171L8.39705 19.183C9.62894 16.8115 11.3907 14.6138 13.6012 12.6961L9.66929 8.16397ZM7.89414 10.1343C8.296 10.9217 8.76784 11.6495 9.2945 12.3065L13.976 8.55361C13.7072 8.21836 13.4567 7.83469 13.2384 7.4069L7.89414 10.1343ZM10.3812 -2.28687C8.07619 -1.11056 6.94266 1.15188 6.63525 3.33907C6.32628 5.53731 6.77788 7.94699 7.89414 10.1343L13.2384 7.4069C12.6141 6.18357 12.4593 5.01082 12.5768 4.17417C12.696 3.32647 13.022 3.10156 13.1086 3.05741L10.3812 -2.28687ZM21.8987 2.9872C20.7825 0.799904 19.0961 -0.979642 17.1348 -2.01925C15.1833 -3.05362 12.6861 -3.46318 10.3812 -2.28687L13.1086 3.05741C13.1951 3.01326 13.5685 2.8812 14.3249 3.2821C15.0713 3.67777 15.9301 4.49127 16.5545 5.7146L21.8987 2.9872Z" fill="#A64470" mask="url(#path-1-inside-1)"/>
<line x1="23.2188" y1="16.5406" x2="42.3564" y2="16.5406" stroke="#A64470" stroke-width="2" stroke-linecap="round"/>
</svg>
