<svg width="67" height="56" viewBox="0 0 67 56" fill="none" xmlns="http://www.w3.org/2000/svg">
<path d="M56.3607 3.95959C59.8062 1.74845 62.8763 3.84785 63.9807 5.17394C66.4781 9.06556 63.8721 12.111 62.2569 13.1473L43.9527 24.894C44.279 30.5347 45.0486 43.4198 45.5167 49.8342C45.2786 55.3851 39.5843 55.9871 38.3989 50.5868L33.0379 33.4016C32.8413 32.7714 32.0988 32.5012 31.5432 32.8578L19.1883 40.7865C18.9329 41.9678 18.9409 44.6649 18.7588 47.2235C18.4552 51.4881 13.667 54.3062 11.0767 48.2813C7.9913 41.1046 8.68499 42.1856 3.44613 36.3909C-0.744967 31.7552 2.88671 28.4129 6.40178 29.1527L13.2921 31.5988L25.6567 23.6639C26.2093 23.3092 26.276 22.5273 25.7913 22.0842L12.0388 9.51139C6.78939 6.06908 10.0792 -0.648389 15.3286 2.79392L38.0565 15.7063L56.3607 3.95959Z" stroke="#F4793B" stroke-width="3"/>
</svg>
