<svg width="32" height="32" viewBox="0 0 32 32" fill="none" xmlns="http://www.w3.org/2000/svg">
<path d="M2.5 8.5V7.5H16.5V8.5H2.5Z" fill="#141424" stroke="#141424"/>
<path d="M20.5 7V7.5H21H29.5V8.5H21H20.5V9V10.5H19.5V5.5H20.5V7Z" fill="#141424" stroke="#141424"/>
<path d="M15.5 16.5V15.5H29.5V16.5H15.5Z" fill="#141424" stroke="#141424"/>
<path d="M11 15.5H11.5V15V13.5H12.5V18.5H11.5V17V16.5H11H2.5V15.5H11Z" fill="#141424" stroke="#141424"/>
<path d="M2.5 24.5V23.5H16.5V24.5H2.5Z" fill="#141424" stroke="#141424"/>
<path d="M21 24.5H20.5V25V26.5H19.5V21.5H20.5V23V23.5H21H29.5V24.5H21Z" fill="#141424" stroke="#141424"/>
</svg>
