<svg width="32" height="32" viewBox="0 0 32 32" fill="none" xmlns="http://www.w3.org/2000/svg">
<path d="M9.63813 10.7026L9.60676 10.7402L9.58329 10.7832C8.89779 12.04 8.98325 13.4908 9.96868 14.4762L17.3687 21.8762C18.3408 22.8484 19.9056 22.968 20.9996 22.2387L21.0218 22.2239L21.0423 22.2068L23.4423 20.2068L23.4424 20.2069L23.4515 20.1989C24.0412 19.683 24.9431 19.7506 25.4687 20.2762L28.2687 23.0762C29.0427 23.8502 28.9963 25.3097 28.0026 26.1382C24.8394 28.766 22.1845 29.4066 19.4413 28.5813C16.6249 27.734 13.6287 25.322 9.8758 21.5691C6.12194 17.8152 3.70995 14.8439 2.85048 12.0267C2.01317 9.28223 2.63061 6.60114 5.21027 3.33806C6.04986 2.3356 7.50683 2.21434 8.36869 3.07619L11.5687 6.2762C12.0943 6.80177 12.1619 7.70372 11.646 8.29341L11.6458 8.29331L11.6381 8.30257L9.63813 10.7026Z" fill="#141424" stroke="#141424"/>
</svg>
