<svg width="32" height="32" viewBox="0 0 32 32" fill="none" xmlns="http://www.w3.org/2000/svg">
<path d="M10.1364 26.63L9.82283 26.345L9.49023 26.6076L6.5 28.9682V4.1C6.5 3.16003 7.19198 2.5 8 2.5H25.2C26.0223 2.5 26.651 3.1527 26.5068 4.0178L26.5 4.05862V4.1V28.9799L23.3063 26.5048L22.9688 26.2433L22.6577 26.5356L19.6944 29.3192L16.7364 26.63L16.4 26.3243L16.0637 26.63L13.1 29.3243L10.1364 26.63ZM24.6799 26.1841L25.5 26.8676V25.8V4.1V4V3.5H25H8H7.5V4V4.1V25.9V26.9676L8.3201 26.2841L8.91255 25.7904L9.88505 25.0423L10.8712 25.8768L12.8655 27.6716L13.2 27.9727L13.5344 27.6716L15.5344 25.8716L15.5345 25.8717L15.5391 25.8674L16.5 24.9804L17.4609 25.8674L17.4609 25.8674L17.4656 25.8716L19.4656 27.6716L19.8092 27.9809L20.1444 27.6625L22.1418 25.765L23.1144 24.8672L24.0771 25.6817L24.0799 25.6841L24.6799 26.1841Z" fill="#141424" stroke="#141424"/>
<path d="M16.5101 14.4999L16.6071 15.0821C16.6471 15.3219 16.688 15.52 16.7208 15.6793C16.7305 15.7264 16.7395 15.7701 16.7476 15.8105C16.7846 15.9952 16.8004 16.1033 16.8004 16.1999C16.8004 16.7715 16.4453 17.3184 15.7768 17.6527L16.0004 18.5999H20.4004V19.5999H12.4004V18.5999H12.5004C13.6141 18.5999 14.5022 18.3623 15.1266 17.9206C15.7658 17.4685 16.1003 16.8191 16.1003 16.0999C16.1003 15.5981 15.9695 15.2021 15.7164 14.8225L15.568 14.5999H15.7865L14.487 13.6903C14.0233 13.3657 13.7317 13.0636 13.5541 12.7677C13.3808 12.4787 13.3004 12.1695 13.3004 11.7999C13.3004 11.2024 13.556 10.6194 14.1029 10.1757C14.6548 9.72792 15.5339 9.3999 16.8004 9.3999C18.0666 9.3999 18.9984 9.72785 19.6147 10.2166C20.0793 10.5851 20.3836 11.0591 20.5211 11.5999H19.4196C19.2776 11.0717 18.9729 10.648 18.5569 10.3455C18.0388 9.96875 17.3781 9.7999 16.7003 9.7999C15.9811 9.7999 15.3372 9.965 14.8606 10.3266C14.3676 10.7006 14.1003 11.251 14.1003 11.8999C14.1003 12.3104 14.2119 12.6925 14.5291 13.1048C14.8259 13.4906 15.3009 13.9004 16.0098 14.4068L16.1402 14.4999H16.3004H16.5101Z" fill="#141424" stroke="#141424"/>
</svg>
