<svg width="28" height="24" viewBox="0 0 28 24" fill="none" xmlns="http://www.w3.org/2000/svg">
<path d="M6.5 14.5V13.5H10.5V14.5H6.5Z" fill="black" stroke="#141424"/>
<path d="M17.5 14.5V13.5H21.5V14.5H17.5Z" fill="black" stroke="#141424"/>
<path d="M25.3305 9.17213L25.4508 9.5H25.8H27.5V10.5H26H25.5V11V18.4V20V23.5H22.5V20V19.5H22H6H5.5V20V23.5H2.5V20V18.4V11V10.5H2H0.5V9.5H2.29999H2.64921L2.76943 9.17213L5.94919 0.5H22.1508L25.3305 9.17213ZM6.90002 1.5H6.54944L6.42996 1.8296L3.52993 9.8296L3.5 9.91217V10V18V18.5H4H24H24.5V18V10V9.90933L24.4682 9.82444L21.4682 1.82444L21.3465 1.5H21H6.90002Z" fill="black" stroke="#141424"/>
</svg>
