<svg width="28" height="28" viewBox="0 0 28 28" fill="none" xmlns="http://www.w3.org/2000/svg">
<path d="M5.21899 2C5.31899 2 5.41899 2 5.51899 2.1L8.71899 5.3L6.71899 7.7L6.51899 8.1C5.51899 9.9 5.71899 12.2 7.21899 13.6L14.619 21C15.419 21.8 16.619 22.3 17.819 22.3C18.619 22.3 19.419 22.1 20.119 21.7L20.319 21.6L20.419 21.5L22.819 19.5L25.619 22.3C25.719 22.4 25.719 22.6 25.719 22.7C25.719 22.8 25.719 23 25.419 23.2C22.919 25.3 20.719 26.3 18.519 26.3C15.519 26.3 12.319 24.5 8.31899 20.5C1.31899 13.5 0.218991 8.3 4.71899 2.6C4.91899 2.1 5.11899 2 5.21899 2ZM5.21899 0C4.41899 0 3.61899 0.3 3.11899 1C-2.18101 7.7 -0.581009 14.1 6.81899 21.6C11.119 25.9 14.819 28 18.419 28C21.119 28 23.819 26.8 26.619 24.5C27.819 23.5 27.919 21.7 26.919 20.7L22.819 16.6L19.019 19.8C18.619 20 18.119 20.2 17.719 20.2C17.119 20.2 16.419 20 16.019 19.5L8.61899 12.1C7.81899 11.3 7.71899 10.1 8.31899 9L11.519 5.2L7.01899 0.7C6.51899 0.3 5.91899 0 5.21899 0V0Z" fill="#141424"/>
</svg>
