<svg width="120" height="20" viewBox="0 0 120 20" fill="none" xmlns="http://www.w3.org/2000/svg">
<path d="M10 0L13.0929 6.35L20 7.36429L15 12.3071L16.1786 19.2857L10 15.9929L3.82143 19.2857L5 12.3071L0 7.36429L6.90714 6.35L10 0Z" fill="#F7C95A"/>
<path d="M35 0L38.0929 6.35L45 7.36429L40 12.3071L41.1786 19.2857L35 15.9929L28.8214 19.2857L30 12.3071L25 7.36429L31.9071 6.35L35 0Z" fill="#F7C95A"/>
<path d="M60 0L63.0929 6.35L70 7.36429L65 12.3071L66.1786 19.2857L60 15.9929L53.8214 19.2857L55 12.3071L50 7.36429L56.9071 6.35L60 0Z" fill="#F7C95A"/>
<path d="M85 0L88.0929 6.35L95 7.36429L90 12.3071L91.1786 19.2857L85 15.9929L78.8214 19.2857L80 12.3071L75 7.36429L81.9071 6.35L85 0Z" fill="#F7C95A"/>
<path d="M110 3.26429L111.807 6.97143L112.136 7.65L112.879 7.75714L116.957 8.35714L113.993 11.2857L113.464 11.8071L113.586 12.5429L114.286 16.6571L110.671 14.7286L110 14.3714L109.329 14.7286L105.714 16.6571L106.407 12.5429L106.529 11.8071L106 11.2857L103.036 8.35714L107.114 7.75714L107.857 7.65L108.186 6.97143L110 3.26429ZM110 0L106.907 6.35L100 7.36429L105 12.3071L103.821 19.2857L110 15.9929L116.179 19.2857L115 12.3071L120 7.36429L113.093 6.34286L110 0Z" fill="#F7C95A"/>
</svg>
