<svg width="954" height="911" viewBox="0 0 954 911" fill="none" xmlns="http://www.w3.org/2000/svg">
<mask id="mask0" mask-type="alpha" maskUnits="userSpaceOnUse" x="0" y="0" width="954" height="911">
<rect y="40.0137" width="917.453" height="871.49" transform="rotate(-2.44044 0 40.0137)" fill="#F2F2F3"/>
</mask>
<g mask="url(#mask0)">
<path d="M18.7211 263.975L118.338 864.526C118.664 866.939 119.211 869.316 119.973 871.628C125.484 887.693 140.399 896.986 153.246 892.579C156.385 891.412 159.225 889.56 161.557 887.157C163.89 884.754 165.657 881.861 166.73 878.69V878.69L300.746 560.47L40.8635 305.841C32.1498 297.736 25.6137 287.571 21.8556 276.28C20.5187 272.258 19.4713 268.146 18.7211 263.975" fill="#F9A34A"/>
<path d="M394.614 337.336L300.745 560.47L489.687 745.713C503.77 759.752 522.389 766.002 539.535 760.12L394.512 337.371" fill="#F37D46"/>
<path d="M48.6817 202.232L45.969 203.163C25.2885 211.916 14.2444 236.919 18.7717 263.957C19.5428 268.142 20.6132 272.265 21.9749 276.296C25.733 287.587 32.2691 297.752 40.9829 305.858V305.858L300.745 560.47L394.615 337.336L80.8351 204.411C77.2313 202.783 73.4555 201.566 69.579 200.782C69.579 200.782 69.579 200.782 69.579 200.782C62.8034 199.485 55.8096 199.917 49.2447 202.039L48.8864 202.162" fill="#FDBF4B"/>
<path d="M646.165 48.7304C648.189 52.4765 649.894 56.3869 651.262 60.4197C655.24 71.5817 656.36 83.562 654.521 95.2692V95.2692L605.587 455.894L906.622 625.041C909.404 626.893 912.565 628.097 915.874 628.565C919.183 629.033 922.555 628.753 925.742 627.746C938.64 623.321 944.64 606.796 939.129 590.731C938.337 588.428 937.308 586.213 936.061 584.121L646.369 48.6601" fill="#8C5190"/>
<path d="M394.614 337.336L539.62 760.033C556.715 754.169 567.577 737.805 570.026 718.095L605.467 455.878L394.614 337.336Z" fill="#DB557A"/>
<path d="M584.663 18.3643L584.356 18.4697C577.861 20.8052 572.07 24.7601 567.532 29.9594V29.9594C565.009 32.9223 562.795 36.1343 560.924 39.5456L394.614 337.336L605.587 455.894L654.539 95.3204C656.442 83.5727 655.362 71.536 651.397 60.3159C649.981 56.3142 648.231 52.4387 646.164 48.7304V48.7304C633.299 25.0674 609.315 11.8515 587.427 17.4162L584.714 18.3468" fill="#A04975"/>
</g>
</svg>
